<?xml version="1.0" encoding="utf-8"?>
<!-- Generator: Adobe Illustrator 18.0.0, SVG Export Plug-In . SVG Version: 6.00 Build 0)  -->
<!DOCTYPE svg PUBLIC "-//W3C//DTD SVG 1.1//EN" "http://www.w3.org/Graphics/SVG/1.1/DTD/svg11.dtd">
<svg version="1.1" id="Слой_1" xmlns="http://www.w3.org/2000/svg" xmlns:xlink="http://www.w3.org/1999/xlink" x="0px" y="0px"
	 viewBox="0 0 158 106" enable-background="new 0 0 158 106" xml:space="preserve">
<g>
	<path fill="#FFFFFF" d="M0.6,72.1h156.8V36.4H0.6V72.1z M76.5,47.1l1.6-8.5h4.7c0.4,0,0.9,0.3,1.2,0.6l2,2.7h-3.1l1,5.2h8.7
		l-7.2,18.3H75l-7.2-18.3H76.5z"/>
	<path fill="none" d="M143.1,105.6H14.9c-7.9,0-14.3-6.4-14.3-14.3v16.5h156.8V91.3C157.4,99.2,151,105.6,143.1,105.6z"/>
	<path fill="#424953" d="M0.6,91.3c0,7.9,6.4,14.3,14.3,14.3h128.3c7.9,0,14.3-6.4,14.3-14.3V72.1H0.6V91.3z"/>
	<path fill="#D6606B" d="M143.1,0.6H14.9C7,0.6,0.6,7,0.6,14.9v19.2v2.2h156.8v-2.2V14.9C157.4,7,151,0.6,143.1,0.6z"/>
	<path fill="#F3C961" d="M85.2,65.4l7.2-18.3h-8.7l-1-5.2h3.1l-2-2.7c-0.2-0.3-0.8-0.6-1.2-0.6h-4.7l-1.6,8.5h-8.7L75,65.4H85.2z"/>
</g>
</svg>
