<?xml version="1.0" encoding="utf-8"?>
<!-- Generator: Adobe Illustrator 18.0.0, SVG Export Plug-In . SVG Version: 6.00 Build 0)  -->
<!DOCTYPE svg PUBLIC "-//W3C//DTD SVG 1.1//EN" "http://www.w3.org/Graphics/SVG/1.1/DTD/svg11.dtd">
<svg version="1.1" id="Слой_1" xmlns="http://www.w3.org/2000/svg" xmlns:xlink="http://www.w3.org/1999/xlink" x="0px" y="0px"
	 viewBox="0 0 158 106" enable-background="new 0 0 158 106" xml:space="preserve">
<g>
	<path fill="#4D5B9E" d="M9.8,105.2c1.5,0.5,3.1,0.8,4.9,0.8h129c1.8,0,3.7-0.4,5.2-1L79.6,60.3L9.8,105.2z"/>
	<path fill="#4D5B9E" d="M1.1,9.8c-0.5,1.5-0.8,3.1-0.8,4.8v77.1c0,2,0.4,4,1.1,5.6l67.6-43.6L1.1,9.8z"/>
	<path fill="#FFFFFF" d="M70.8,54.7l-1.7-1.1L1.4,97.2c0.2,0.6,0.5,1.1,0.9,1.7L70.8,54.7z"/>
	<path fill="#FFFFFF" d="M77.7,59.2L7.8,104.3c0.7,0.4,1.3,0.7,2.1,0.9l69.6-44.9L77.7,59.2z"/>
	<path fill="#D7606B" d="M2.3,99c1.3,2.3,3.3,4.2,5.5,5.4l69.9-45.1l-6.9-4.6L2.3,99z"/>
	<path fill="#4D5B9E" d="M149.9,1.4c-1.9-0.9-4-1.4-6.1-1.4h-129c-2.1,0-4.2,0.5-6,1.3l70.7,45.5L149.9,1.4z"/>
	<path fill="#4D5B9E" d="M89.8,53.7L157,97.1c0.7-1.6,1-3.4,1-5.3V14.5c0-1.6-0.3-3.1-0.7-4.5L89.8,53.7z"/>
	<path fill="#FFFFFF" d="M81.1,48.1l70.5-45.5c-0.6-0.4-1.2-0.7-1.8-1L79.5,47L81.1,48.1z"/>
	<path fill="#FFFFFF" d="M88.1,52.5l1.7,1.1l67.5-43.6c-0.2-0.6-0.4-1.2-0.7-1.8L88.1,52.5z"/>
	<path fill="#D7606B" d="M156.6,8.2c-1.1-2.3-2.8-4.4-5-5.7L81.1,48l6.9,4.6L156.6,8.2z"/>
	<path fill="#FFFFFF" d="M88.1,54.8l68.1,43.9c0.3-0.5,0.6-1.1,0.8-1.7L89.8,53.7L88.1,54.8z"/>
	<path fill="#FFFFFF" d="M79.5,46.9L8.7,1.4C8.2,1.7,7.5,2,7,2.4L77.9,48L79.5,46.9z"/>
	<polygon fill="#FFFFFF" points="81.1,48.1 79.5,46.9 77.7,48.1 79.5,49.2 	"/>
	<polygon fill="#FFFFFF" points="86.4,53.7 88.1,54.8 89.8,53.7 88.1,52.5 	"/>
	<polygon fill="#FFFFFF" points="86.4,53.7 88.1,52.5 81.1,48.1 79.5,49.2 	"/>
	<path fill="#FFFFFF" d="M70.8,52.5L1.9,8C1.6,8.6,1.4,9.1,1.2,9.7l67.9,43.7L70.8,52.5z"/>
	<path fill="#FFFFFF" d="M79.6,60.3l69.5,44.7c0.7-0.3,1.3-0.6,2-1L81.2,59.2L79.6,60.3z"/>
	<polygon fill="#FFFFFF" points="70.8,52.5 69.2,53.5 70.8,54.7 72.5,53.5 	"/>
	<polygon fill="#FFFFFF" points="77.7,59.2 79.6,60.3 81.2,59.2 79.6,58.1 	"/>
	<polygon fill="#FFFFFF" points="72.5,53.5 70.8,54.7 77.7,59.2 79.6,58.1 	"/>
	<path fill="#D7606B" d="M81.2,59.2l69.6,44.9c2.2-1.3,4.1-3.3,5.3-5.4L88.1,54.7L81.2,59.2z"/>
	<path fill="#D7606B" d="M77.7,48.1L6.9,2.5C4.8,3.9,3,5.8,1.8,8.1l68.9,44.4L77.7,48.1z"/>
	<polygon fill="#D7606B" points="79.6,58.1 81.2,59.2 88.1,54.8 86.4,53.7 	"/>
	<polygon fill="#D7606B" points="79.5,49.2 77.7,48.1 70.8,52.5 72.5,53.5 	"/>
	<polygon fill="#D7606B" points="72.5,53.5 79.6,58.1 86.4,53.7 79.5,49.2 	"/>
</g>
<path fill="#FFFFFF" d="M0.3,65.8v-27H158v27.1L0.3,65.8L0.3,65.8z"/>
<path fill="#FFFFFF" d="M65.7,0h27v106h-27V0z"/>
<path fill="#D7606B" d="M0.3,61.4v-18H158v18H0.3z"/>
<path fill="none" d="M70.3,0h18.1v106h-18L70.3,0L70.3,0z"/>
<path fill="#D7606B" d="M70.3,0h18.1v106h-18L70.3,0L70.3,0z"/>
</svg>
