<svg id="artwork" xmlns="http://www.w3.org/2000/svg" xmlns:xlink="http://www.w3.org/1999/xlink" viewBox="0 0 135 40"><defs><style>.cls-1{fill:#a7a6a6;}.cls-2,.cls-3{fill:#fff;}.cls-2{stroke:#fff;stroke-miterlimit:10;stroke-width:0.2px;}.cls-4{fill:#5bc9f4;}.cls-5{fill:url(#linear-gradient);}.Graphic-Style-2{fill:url(#linear-gradient-2);}.cls-6{fill:url(#linear-gradient-3);}</style><linearGradient id="linear-gradient" x1="41.09" y1="30" x2="16.91" y2="30" gradientUnits="userSpaceOnUse"><stop offset="0" stop-color="#fee000"/><stop offset="0.42" stop-color="#fbbc0e"/><stop offset="0.78" stop-color="#faa418"/><stop offset="1" stop-color="#f99b1c"/></linearGradient><linearGradient id="linear-gradient-2" x1="34.81" y1="32.29" x2="12.08" y2="55.03" gradientUnits="userSpaceOnUse"><stop offset="0" stop-color="#ef4547"/><stop offset="1" stop-color="#c6186d"/></linearGradient><linearGradient id="linear-gradient-3" x1="11.97" y1="4.87" x2="30.54" y2="23.43" gradientUnits="userSpaceOnUse"><stop offset="0" stop-color="#279e6f"/><stop offset="0.04" stop-color="#2ba06f"/><stop offset="0.46" stop-color="#53b26c"/><stop offset="0.8" stop-color="#6bbd6a"/><stop offset="1" stop-color="#74c169"/></linearGradient></defs><title>google-play-badge</title><rect width="135" height="40" rx="5" ry="5"/><path class="cls-1" d="M140,10.8a4.2,4.2,0,0,1,4.2,4.2V45a4.2,4.2,0,0,1-4.2,4.2H15A4.2,4.2,0,0,1,10.8,45V15A4.2,4.2,0,0,1,15,10.8H140m0-.8H15a5,5,0,0,0-5,5V45a5,5,0,0,0,5,5H140a5,5,0,0,0,5-5V15a5,5,0,0,0-5-5Z" transform="translate(-10 -10)"/><path class="cls-2" d="M57.42,20.24a2.71,2.71,0,0,1-.75,2,2.91,2.91,0,0,1-2.2.89,3.15,3.15,0,0,1-2.21-5.37,3,3,0,0,1,2.21-.9,3.1,3.1,0,0,1,1.23.25,2.47,2.47,0,0,1,.94.67l-.53.53a2,2,0,0,0-1.64-.71A2.32,2.32,0,0,0,52.14,20a2.36,2.36,0,0,0,4,1.73,1.89,1.89,0,0,0,.5-1.22H54.47v-.72h2.91A2.54,2.54,0,0,1,57.42,20.24Z" transform="translate(-10 -10)"/><path class="cls-2" d="M62,17.74H59.3v1.9h2.46v.72H59.3v1.9H62V23h-3.5V17H62Z" transform="translate(-10 -10)"/><path class="cls-2" d="M65.28,23h-.77V17.74H62.83V17H67v.74H65.28Z" transform="translate(-10 -10)"/><path class="cls-2" d="M69.94,23V17h.77v6Z" transform="translate(-10 -10)"/><path class="cls-2" d="M74.13,23h-.77V17.74H71.68V17H75.8v.74H74.13Z" transform="translate(-10 -10)"/><path class="cls-2" d="M83.61,22.22a3.12,3.12,0,0,1-4.4,0,3.24,3.24,0,0,1,0-4.45,3.1,3.1,0,0,1,4.4,0,3.23,3.23,0,0,1,0,4.45Zm-3.83-.5a2.31,2.31,0,0,0,3.26,0,2.56,2.56,0,0,0,0-3.44,2.31,2.31,0,0,0-3.26,0,2.56,2.56,0,0,0,0,3.44Z" transform="translate(-10 -10)"/><path class="cls-2" d="M85.58,23V17h.94l2.92,4.67h0l0-1.16V17h.77v6h-.8l-3.05-4.89h0l0,1.16V23Z" transform="translate(-10 -10)"/><path class="cls-3" d="M78.14,31.75A4.25,4.25,0,1,0,82.41,36,4.19,4.19,0,0,0,78.14,31.75Zm0,6.83A2.58,2.58,0,1,1,80.54,36,2.46,2.46,0,0,1,78.14,38.58Zm-9.31-6.83A4.25,4.25,0,1,0,73.09,36,4.19,4.19,0,0,0,68.82,31.75Zm0,6.83A2.58,2.58,0,1,1,71.22,36,2.46,2.46,0,0,1,68.82,38.58ZM57.74,33.06v1.8h4.32a3.77,3.77,0,0,1-1,2.27,4.42,4.42,0,0,1-3.33,1.32,4.8,4.8,0,0,1,0-9.6A4.6,4.6,0,0,1,61,30.14l1.27-1.27A6.29,6.29,0,0,0,57.74,27a6.61,6.61,0,1,0,0,13.21,6,6,0,0,0,4.61-1.85,6,6,0,0,0,1.56-4.22,5.87,5.87,0,0,0-.1-1.13Zm45.31,1.4a4,4,0,0,0-3.64-2.71,4,4,0,0,0-4,4.25,4.16,4.16,0,0,0,4.22,4.25,4.23,4.23,0,0,0,3.54-1.88l-1.45-1a2.43,2.43,0,0,1-2.09,1.18,2.16,2.16,0,0,1-2.06-1.29l5.69-2.35Zm-5.8,1.42a2.33,2.33,0,0,1,2.22-2.48,1.65,1.65,0,0,1,1.58.9ZM92.63,40H94.5V27.5H92.63Zm-3.06-7.3H89.5a3,3,0,0,0-2.24-1,4.26,4.26,0,0,0,0,8.51,2.9,2.9,0,0,0,2.24-1h.06v.61c0,1.63-.87,2.5-2.27,2.5a2.35,2.35,0,0,1-2.14-1.51l-1.63.68a4.05,4.05,0,0,0,3.77,2.51c2.19,0,4-1.29,4-4.43V32H89.57Zm-2.14,5.88a2.59,2.59,0,0,1,0-5.16A2.4,2.4,0,0,1,89.7,36,2.38,2.38,0,0,1,87.42,38.58ZM111.81,27.5h-4.47V40h1.87V35.26h2.61a3.89,3.89,0,1,0,0-7.76Zm0,6H109.2V29.24h2.65a2.14,2.14,0,1,1,0,4.29Zm11.53-1.8a3.5,3.5,0,0,0-3.33,1.91l1.66.69a1.77,1.77,0,0,1,1.7-.92,1.8,1.8,0,0,1,2,1.61v.13a4.13,4.13,0,0,0-1.95-.48c-1.79,0-3.6,1-3.6,2.81a2.89,2.89,0,0,0,3.1,2.75A2.63,2.63,0,0,0,125.32,39h.06v1h1.8V35.19C127.18,33,125.52,31.73,123.39,31.73Zm-.23,6.85c-.61,0-1.46-.31-1.46-1.06,0-1,1.06-1.33,2-1.33a3.32,3.32,0,0,1,1.7.42A2.26,2.26,0,0,1,123.16,38.58ZM133.74,32l-2.14,5.42h-.06L129.32,32h-2l3.33,7.58-1.9,4.21h1.95L135.82,32Zm-16.81,8h1.87V27.5h-1.87Z" transform="translate(-10 -10)"/><path class="cls-4" d="M20.44,17.55A2,2,0,0,0,20,19V41a2,2,0,0,0,.46,1.4l.07.07L32.89,30.15v-.29L20.51,17.48Z" transform="translate(-10 -10)"/><path class="cls-5" d="M37,34.27l-4.13-4.13v-.29L37,25.73l.09.05L42,28.56c1.4.79,1.4,2.09,0,2.89l-4.89,2.78Z" transform="translate(-10 -10)"/><path class="Graphic-Style-2" d="M37.11,34.22,32.89,30,20.44,42.45a1.63,1.63,0,0,0,2.08.06l14.6-8.29" transform="translate(-10 -10)"/><path class="cls-6" d="M37.11,25.78l-14.6-8.29a1.63,1.63,0,0,0-2.08.06L32.89,30Z" transform="translate(-10 -10)"/></svg>