<?xml version="1.0" encoding="utf-8"?>
<!-- Generator: Adobe Illustrator 16.0.0, SVG Export Plug-In . SVG Version: 6.00 Build 0)  -->
<!DOCTYPE svg PUBLIC "-//W3C//DTD SVG 1.1//EN" "http://www.w3.org/Graphics/SVG/1.1/DTD/svg11.dtd">
<svg version="1.1" id="Слой_1" xmlns="http://www.w3.org/2000/svg" xmlns:xlink="http://www.w3.org/1999/xlink" x="0px" y="0px"
	 width="157px" height="106px" viewBox="0 0 157 106" enable-background="new 0 0 157 106" xml:space="preserve">
<path fill-rule="evenodd" clip-rule="evenodd" fill="#5285C5" d="M14.374,0.489h128.25c7.87,0,14.25,6.412,14.25,14.32v76.375
	c0,7.91-6.38,14.321-14.25,14.321H14.374c-7.87,0-14.25-6.411-14.25-14.321V14.81C0.124,6.901,6.503,0.489,14.374,0.489z"/>
<path fill-rule="evenodd" clip-rule="evenodd" fill="none" d="M35.952,0.489h17.914v105.016H35.952V0.489z"/>
<path fill-rule="evenodd" clip-rule="evenodd" fill="none" d="M0.124,63.052V45.177h156.75v17.875H0.124z"/>
<polygon fill-rule="evenodd" clip-rule="evenodd" fill="#F4CA61" points="156.874,45.177 53.866,45.177 53.866,0.489 35.952,0.489 
	35.952,45.177 0.124,45.177 0.124,63.052 35.952,63.052 35.952,105.505 53.866,105.505 53.866,63.052 156.874,63.052 "/>
</svg>
