<svg xmlns="http://www.w3.org/2000/svg" viewBox="0 0 19.3 13.87"><title>graduation-cap</title><path d="M23.84,14.19v5.43a.6.6,0,0,0,1.21,0V14.19a.65.65,0,0,0-.6-.6A.59.59,0,0,0,23.84,14.19Z" transform="translate(-6.35 -9.06)" style="fill:#638ab1"/><path d="M24.22,14.49l-1.58.38v5.05c0,1.58-1.81,3-6.64,3s-6.64-1.43-6.64-3V14.87l-1.58-.38a1.92,1.92,0,0,1-1.43-1.81,1.77,1.77,0,0,1,1.43-1.73l7.84-1.81A3.27,3.27,0,0,0,16,9.06a.57.57,0,0,1,.38.08l7.84,1.81a1.84,1.84,0,0,1,1.43,1.73A1.92,1.92,0,0,1,24.22,14.49Z" transform="translate(-6.35 -9.06)" style="fill:#638ab1"/><path d="M21.43,15.1l-5,1.13a3.27,3.27,0,0,0-.38.08c-.08,0-.3,0-.38-.08l-5-1.13v4.83c0,.68,1.81,1.81,5.43,1.81s5.43-1.13,5.43-1.81V15.1Z" transform="translate(-6.35 -9.06)" style="fill:#fff"/><path d="M23.92,13.29a.57.57,0,0,0,.45-.6.66.66,0,0,0-.45-.6l-7.77-1.73h-.3L8.08,12.08a.71.71,0,0,0-.53.6.75.75,0,0,0,.45.6l7.84,1.81h.3Z" transform="translate(-6.35 -9.06)" style="fill:#fff"/><circle cx="18.12" cy="11.15" r="0.76" style="fill:#638ab1"/></svg>