<svg xmlns="http://www.w3.org/2000/svg" viewBox="0 0 512.1 319.91"><title>hand-shake</title><path d="M404.3,315.4c-10-20.9-46-50-80.7-78.1-19.4-15.7-37.7-30.5-49.3-42.1a10.77,10.77,0,0,0-11.2-2.5c-7.2,2.6-11.6,4.6-15.1,6.2-5.3,2.4-7.1,3.2-14.3,3.9a10.47,10.47,0,0,0-7.8,4.7c-15.1,22.5-30.7,20.6-41.1,17.1-3.3-1.1-3.9-2.5-4.2-3.9-2.2-9.4,9-31.2,23.6-45.7,34.7-34.7,52.5-43.4,90.3-26.5,42.8,19.2,85.8,34.2,86.2,34.3a10.69,10.69,0,0,0,7-20.2c-.4-.1-42.5-14.8-84.5-33.6-48.9-21.9-75.8-7.5-114.1,30.9-14.6,14.6-34.4,44.1-29.3,65.8,2.2,9.2,8.7,16,18.3,19.2,24.2,8,46.2.3,62.7-21.5,6.8-1,10.5-2.6,16-5.1,2-.9,4.4-1.9,7.5-3.2,12.2,11.5,28.7,24.8,46,38.8,31.4,25.4,66.9,54.1,74.9,70.8,3.9,8.2-.3,13.6-3.2,16-4.2,3.6-10,4.8-13.1,2.6a10.66,10.66,0,0,0-11.5-.4,10.51,10.51,0,0,0-5.1,10.3c.7,6.8-5.5,10.7-8.2,12-6.8,3.5-14,2.9-16.6.4a10.79,10.79,0,0,0-11.1-2.2,10.59,10.59,0,0,0-6.8,9c-.6,7-5.8,13.7-12.6,16.3-3.3,1.2-8,2-12.2-1.9a10.65,10.65,0,0,0-17.2,4.2c-.4,1.1-1.3,3.6-11.3,3.6-7.1,0-19.9-4.8-26.1-8.9-7.5-4.9-54.4-40-95-73.9-5.7-4.8-15.6-15.1-24.3-24.2-7.7-8.1-14.8-15.4-18.4-18.5a10.65,10.65,0,1,0-13.7,16.3c3.3,2.8,9.7,9.6,16.8,16.9,9.5,9.9,19.3,20.2,26,25.8,39.7,33.3,87.5,69.2,97,75.4,7.9,5.2,24.8,12.4,37.9,12.4,10.5,0,18.6-2.4,24.2-7.1a33.45,33.45,0,0,0,24.3-.3A42,42,0,0,0,327.2,388c8.4,1.8,18,.5,26.8-3.9,8.6-4.3,14.7-10.9,17.8-18.6a35.35,35.35,0,0,0,24.5-8.8C408,346.4,411.3,330.1,404.3,315.4Z" transform="translate(0.1 -95.99)" style="fill:#638ab1"/><path d="M213.3,138.7h-96a10.7,10.7,0,1,0,0,21.4h96a10.7,10.7,0,0,0,0-21.4Z" transform="translate(0.1 -95.99)" style="fill:#638ab1"/><path d="M435.5,292.7a10.64,10.64,0,0,0-14.8-2.9l-31.2,20.9a10.66,10.66,0,0,0,11.9,17.7l31.2-20.9A10.64,10.64,0,0,0,435.5,292.7Z" transform="translate(0.1 -95.99)" style="fill:#638ab1"/><path d="M369.3,343.6c-7.6-6-41.8-41-62.9-63A10.68,10.68,0,1,0,291,295.4c5.5,5.7,53.8,56.1,65.1,65a10.81,10.81,0,0,0,6.6,2.3,10.7,10.7,0,0,0,6.6-19.1Z" transform="translate(0.1 -95.99)" style="fill:#638ab1"/><path d="M326.7,365c-12.8-10.2-44.9-44.3-52.1-52.2a10.69,10.69,0,1,0-15.7,14.5c.4.4,38.7,41.8,54.5,54.4a10.49,10.49,0,0,0,6.7,2.3,10.65,10.65,0,0,0,6.6-19Z" transform="translate(0.1 -95.99)" style="fill:#638ab1"/><path d="M284.2,386.5c-15.2-12.8-46.3-46-52.4-52.5a10.68,10.68,0,0,0-15.6,14.6c8.7,9.4,38.5,40.9,54.3,54.2a10.48,10.48,0,0,0,6.9,2.5,10.61,10.61,0,0,0,6.8-18.8Z" transform="translate(0.1 -95.99)" style="fill:#638ab1"/><path d="M124.7,120.3C106.4,102.9,33.3,97.3,11.3,96a11.16,11.16,0,0,0-8,2.9,10.82,10.82,0,0,0-3.4,7.8v192a10.71,10.71,0,0,0,10.7,10.7h64A10.63,10.63,0,0,0,84.7,302c1.6-4.8,38.3-117.6,43.2-173.1A10.6,10.6,0,0,0,124.7,120.3ZM66.9,288H21.3V118.1c34.3,2.7,71.3,8.6,84.7,15.1C100.4,179.9,74.8,263,66.9,288Z" transform="translate(0.1 -95.99)" style="fill:#638ab1"/><path d="M501.3,117.3c-83.8,0-130.2,21.4-132.2,22.3a10.62,10.62,0,0,0-4.5,15.3C377.8,176.1,419.1,294,427,322.8a10.71,10.71,0,0,0,10.3,7.8h64A10.71,10.71,0,0,0,512,319.9V128A10.71,10.71,0,0,0,501.3,117.3Zm-10.6,192H445.3c-10.1-32.9-40-118.8-56.6-154.3,16.3-5.5,51.2-15,102-16.2Z" transform="translate(0.1 -95.99)" style="fill:#638ab1"/></svg>