<?xml version="1.0" encoding="UTF-8"?>
<svg width="2235px" height="604px" viewBox="0 0 2235 604" version="1.1" xmlns="http://www.w3.org/2000/svg" xmlns:xlink="http://www.w3.org/1999/xlink">
    <!-- Generator: Sketch 47 (45396) - http://www.bohemiancoding.com/sketch -->
    <title>sprakchat-beta-logotype</title>
    <desc>Created with Sketch.</desc>
    <defs>
        <path d="M661,442.9 C607.9,437.4 564.833333,423.833333 531.8,402.2 C564.3,366.1 583.2,322.8 583.2,276.3 C583.2,149.7 442.4,27.2 270.8,47.2 C252.277266,49.3832092 233.88439,52.5543947 215.7,56.7 C264.3,21.9 329.2,0.6 400.4,0.6 C551.4,0.5 673.7,96 673.7,213.8 C673.7,260.7 654.3,304.1 621.4,339.3 C620.8,382.3 636.8,415.2 661,442.9 Z M274,80.4 C123,80.4 0.7,175.9 0.7,293.7 C0.7,352.9 31.5,406.4 81.4,445 C82.3,488.5 66.2,521.6 41.8,549.5 C104.5,543 153.2,525.233333 187.9,496.2 L187.9,496.2 C216.029473,503.417785 244.959314,507.046615 274,507 C424.9,507 547.3,411.5 547.3,293.7 C547.3,175.9 424.9,80.4 274,80.4 Z" id="path-1"></path>
    </defs>
    <g id="Page-1" stroke="none" stroke-width="1" fill="none" fill-rule="evenodd">
        <g id="sprakchat-beta-logotype">
            <g id="Path" transform="translate(0.000000, 54.000000)">
                <mask id="mask-2" fill="white">
                    <use xlink:href="#path-1"></use>
                </mask>
                <use id="Mask" fill="#006AA7" fill-rule="nonzero" xlink:href="#path-1"></use>
                <polygon fill="#FECC00" mask="url(#mask-2)" points="719.3 190 314.6 190 314.6 -19.5 177.6 -19.5 177.6 190 -19 190 -19 325.7 177.6 325.7 177.6 550.7 314.6 550.7 314.6 325.7 719.3 325.7"></polygon>
            </g>
            <g id="Group" transform="translate(813.000000, 196.000000)" fill-rule="nonzero" fill="#006AA7">
                <path d="M29.8,152.7 C20.9,149.3 14.6,145.8 11,142.1 L11.1,142.1 C4.12506413,135.337569 0.222441721,126.014638 0.3,116.3 C0.205346515,109.330267 2.2277732,102.49586 6.1,96.7 C10.063069,90.7543279 15.2020178,85.6834446 21.2,81.8 C27.6390748,77.581748 34.6879527,74.3777125 42.1,72.3 C49.672142,70.0949813 57.513501,68.9507487 65.4,68.9 C89.2,68.9 109.6,78.4666667 126.6,97.6 C128.616948,100.159435 129.677897,103.342284 129.6,106.6 C129.727641,110.562381 128.206927,114.400373 125.4,117.2 C122.590394,119.991725 118.759239,121.50973 114.8,121.4 C111.980221,121.444013 109.229415,120.527078 107,118.8 C104.837655,117.042072 102.768194,115.172881 100.8,113.2 C91.5203287,103.656797 78.7091521,98.3730917 65.4,98.6 C51.7,98.6 40.8,102.8 32.6,111.2 C31.0063137,112.898499 30.1754934,115.174224 30.3,117.5 C30.1113116,119.945778 31.6510551,122.192971 34,122.9 L100.8,144.9 C110.1,148.5 116.4,152 119.6,155.5 L119.5,155.5 C126.474936,162.262431 130.377558,171.585362 130.3,181.3 C130.409296,188.302915 128.386482,195.173507 124.5,201 C120.509387,206.922882 115.375561,211.98871 109.4,215.9 C102.996548,220.117625 95.9806793,223.321988 88.6,225.4 C81.0249688,227.579972 73.1824672,228.690713 65.3,228.7 C41.3,228.7 20.9,219.233333 4.1,200.3 C2.06046085,197.63139 0.96953452,194.358611 1,191 C0.872358771,187.037619 2.39307269,183.199627 5.2,180.4 C8.00960585,177.608275 11.8407613,176.09027 15.8,176.2 C18.7208195,176.114167 21.570213,177.111455 23.8,179 C26,180.9 28,182.6 29.8,184.4 C39.1077167,193.962712 51.9576686,199.247481 65.3,199 C78.9,199 89.8,194.7 98.1,186.2 C99.5081122,184.562196 100.25665,182.459161 100.2,180.3 C100.298004,177.771397 98.7056724,175.484971 96.3,174.7 L29.8,152.7 Z" id="Shape"></path>
                <path d="M231.8,228.8 C212.7,228.8 196,222.933333 181.7,211.2 L181.7,282.4 C181.80275,286.397398 180.203378,290.250429 177.3,293 C174.47941,295.774904 170.655721,297.289951 166.7,297.2 C162.737619,297.327641 158.899627,295.806927 156.1,293 C153.308275,290.190394 151.79027,286.359239 151.9,282.4 L151.9,148.9 C151.9,126.8 159.7,107.966667 175.3,92.4 C190.9,76.8333333 209.733333,69.0333333 231.8,69 C253.7,69 272.533333,76.8 288.3,92.4 C295.856245,99.7169152 301.844419,108.495035 305.9,118.2 C309.877096,127.97756 311.882194,138.444849 311.8,149 C311.8,171.3 304,190.133333 288.4,205.5 C280.974505,213.018707 272.139322,218.999446 262.4,223.1 C252.662657,226.95428 242.272023,228.88979 231.8,228.8 Z M181.7,148.9 C181.669378,155.564383 182.996344,162.165188 185.6,168.3 C188.109858,174.215201 191.705144,179.608131 196.2,184.2 C200.764512,188.732765 206.119192,192.392926 212,195 C218.21256,197.70306 224.925188,199.06603 231.7,199 C238.410269,199.066221 245.057704,197.702645 251.2,195 C263.175235,189.85912 272.704091,180.294441 277.8,168.3 C283.000582,155.95884 283.000582,142.04116 277.8,129.7 C275.241937,123.786834 271.614518,118.396558 267.1,113.8 C262.570115,109.179452 257.164855,105.507954 251.2,103 C245.054556,100.307248 238.409267,98.944112 231.7,99 C224.925188,98.93397 218.21256,100.29694 212,103 C206.091644,105.557387 200.72822,109.223525 196.2,113.8 C191.672805,118.365558 188.073132,123.765067 185.6,129.7 C183.014898,135.770385 181.688142,142.302108 181.7,148.9 L181.7,148.9 Z" id="Shape"></path>
                <path d="M363.8,83.8 L363.8,86.7 C370.779168,81.0606761 378.655203,76.632519 387.1,73.6 C395.700316,70.5292029 404.767942,68.9728193 413.9,69 C418.41428,69.0205898 422.922936,69.3211669 427.4,69.9 C431.936568,70.4255047 436.398605,71.4655283 440.7,73 C444.449113,74.3197189 447.886925,76.3960211 450.8,79.1 C453.495511,81.7123135 454.950326,85.3493515 454.8,89.1 C454.807912,91.128058 454.399485,93.1361584 453.6,95 C452.806052,96.7659173 451.724713,98.387926 450.4,99.8 C449.095545,101.208438 447.488544,102.302567 445.7,103 C443.832248,103.776406 441.822049,104.151189 439.8,104.1 C437.609906,104.022197 435.461815,103.47665 433.5,102.5 C427.291095,100.060291 420.670745,98.8380721 414,98.9 C400.690617,98.8276866 387.905427,104.08284 378.494134,113.494134 C369.08284,122.905427 363.827687,135.690617 363.9,149 L363.9,214 C363.845471,222.20635 357.20635,228.845471 349,228.9 C345.000231,229.015559 341.142174,227.414101 338.4,224.5 C335.548312,221.756395 333.95617,217.956965 334,214 L334,83.8 C333.913127,79.8347495 335.512221,76.0187298 338.4,73.3 C341.188838,70.4846999 344.987232,68.9008373 348.95,68.9008373 C352.912768,68.9008373 356.711162,70.4846999 359.5,73.3 C362.324009,76.0545443 363.88075,79.8558879 363.8,83.8 Z" id="Shape"></path>
                <path d="M601.6,214 L601.6,211.1 C594.620832,216.739324 586.744797,221.167481 578.3,224.2 C569.699684,227.270797 560.632058,228.827181 551.5,228.8 C529.4,228.8 510.566667,221 495,205.4 C479.433333,189.8 471.633333,170.966667 471.6,148.9 C471.6,126.8 479.4,107.966667 495,92.4 C510.6,76.8333333 529.433333,69.0333333 551.5,69 C573.4,69 592.233333,76.8 608,92.4 C623.6,108 631.4,126.833333 631.4,148.9 L631.4,214 C631.345471,222.20635 624.70635,228.845471 616.5,228.9 C612.500231,229.015559 608.642174,227.414101 605.9,224.5 C603.092048,221.734657 601.53827,217.940547 601.6,214 L601.6,214 Z M551.5,98.8 C544.725188,98.73397 538.01256,100.09694 531.8,102.8 C525.891644,105.357387 520.52822,109.023525 516,113.6 C511.472805,118.165558 507.873132,123.565067 505.4,129.5 C500.199856,141.910624 500.199856,155.889376 505.4,168.3 C507.909858,174.215201 511.505144,179.608131 516,184.2 C520.564512,188.732765 525.919192,192.392926 531.8,195 C544.357042,200.333946 558.542958,200.333946 571.1,195 C583.075235,189.85912 592.604091,180.294441 597.7,168.3 C602.900582,155.95884 602.900582,142.04116 597.7,129.7 C595.141937,123.786834 591.514518,118.396558 587,113.8 C582.470115,109.179452 577.064855,105.507954 571.1,103 C564.960439,100.159427 558.264419,98.7245655 551.5,98.8 Z M582.7,32 C582.741158,36.1656659 581.888664,40.2917354 580.2,44.1 C578.572512,47.8258681 576.266687,51.2167869 573.4,54.1 C570.535044,56.9426857 567.181511,59.2461223 563.5,60.9 C559.691735,62.5886642 555.565666,63.4411579 551.4,63.4 C547.245934,63.4258038 543.129735,62.6093677 539.3,61 C531.750606,57.8160715 525.728942,51.8302513 522.5,44.3 C520.80112,40.4245411 519.948808,36.2311645 520,32 C519.958842,27.8343341 520.811336,23.7082646 522.5,19.9 C525.763933,12.3701412 531.770141,6.36393313 539.3,3.1 C547.022884,-0.266051965 555.805198,-0.229761413 563.5,3.2 C567.205651,4.86388291 570.590373,7.16549374 573.5,10 C576.368478,12.860905 578.645169,16.258951 580.2,20 C581.878826,23.7761824 582.731197,27.8675629 582.7,32 L582.7,32 Z M551.5,22.5 C546.198066,22.5 541.9,26.7980664 541.9,32.1 C541.9,37.4019336 546.198066,41.7 551.5,41.7 C554.000183,41.7586542 556.404695,40.7385581 558.1,38.9 C559.891669,37.1105625 560.898405,34.6822249 560.898405,32.15 C560.898405,29.6177751 559.891669,27.1894375 558.1,25.4 C556.44341,23.4962962 554.022665,22.4326356 551.5,22.5 Z" id="Shape"></path>
                <path d="M653.9,213.8 L653.9,15.5 C653.784441,11.5002308 655.385899,7.64217432 658.3,4.9 C662.598571,0.686230277 668.999742,-0.549757678 674.558074,1.76076461 C680.116406,4.07128691 683.755161,9.48073455 683.8,15.5 L683.8,126.8 L769.1,71.3 C771.488657,69.7769844 774.267195,68.9781546 777.1,69 C779.116957,69.0073669 781.115897,69.3800507 783,70.1 C784.769061,70.8339458 786.368714,71.9230711 787.7,73.3 C789.024713,74.712074 790.106052,76.3340827 790.9,78.1 C791.698667,79.8937347 792.107672,81.8365098 792.1,83.8 C792.1,89.1 790.2,93.1 786.4,95.6 L726.6,134.4 L788,203.5 C790.679228,206.293833 792.151927,210.029462 792.1,213.9 C792.107672,215.86349 791.698667,217.806265 790.9,219.6 C790.106052,221.365917 789.024713,222.987926 787.7,224.4 C786.395545,225.808438 784.788544,226.902567 783,227.6 C781.132248,228.376406 779.122049,228.751189 777.1,228.7 C773.377158,228.801561 769.771105,227.3952 767.1,224.8 L701.2,150.7 L683.8,162.1 L683.8,213.6 C683.825627,217.58267 682.238497,221.406211 679.4,224.2 C676.68127,227.087779 672.86525,228.686873 668.9,228.6 C664.910063,228.663177 661.072328,227.070154 658.3,224.2 C655.438258,221.504824 653.841497,217.730664 653.9,213.8 Z" id="Shape"></path>
                <path d="M935.6,183.6 C939.561737,183.47663 943.398282,184.99626 946.201011,187.798989 C949.00374,190.601718 950.52337,194.438263 950.4,198.4 C950.389847,202.552311 948.693534,206.522406 945.7,209.4 C931.033333,222.3 913.666667,228.766667 893.6,228.8 C871.5,228.8 852.666667,221 837.1,205.4 C821.533333,189.8 813.733333,170.966667 813.7,148.9 C813.7,126.8 821.5,107.966667 837.1,92.4 C852.7,76.8333333 871.533333,69.0333333 893.6,69 C913.7,69 931,75.5 945.7,88.4 C949.008059,91.2116402 950.879986,95.3592421 950.8,99.7 C950.909165,103.688685 949.393276,107.550591 946.6,110.4 C943.827897,113.259186 939.980594,114.819884 936,114.7 C932.468694,114.735022 929.036665,113.532043 926.3,111.3 C921.746385,107.379361 916.57692,104.237137 911,102 C905.449466,99.8711584 899.544228,98.8190756 893.6,98.9 C886.901377,98.8495083 880.263924,100.176999 874.1,102.8 C868.142984,105.331978 862.715311,108.961735 858.1,113.5 C853.479658,118.030057 849.80819,123.435274 847.3,129.4 C842.099965,141.914656 842.099965,155.985344 847.3,168.5 C849.807954,174.464855 853.479452,179.870115 858.1,184.4 C862.715311,188.938265 868.142984,192.568022 874.1,195.1 C880.266861,197.713492 886.902324,199.040584 893.6,199 C899.544228,199.080924 905.449466,198.028842 911,195.9 C916.541246,193.757441 921.654975,190.641792 926.1,186.7 C928.872495,184.71425 932.189879,183.631736 935.6,183.6 L935.6,183.6 Z" id="Shape"></path>
                <path d="M1003.6,213.8 C1003.6,222.084271 996.884271,228.8 988.6,228.8 C984.63475,228.886873 980.81873,227.287779 978.1,224.4 C975.229846,221.627672 973.636823,217.789937 973.7,213.8 L973.7,15.5 C973.584441,11.5002308 975.185899,7.64217432 978.1,4.9 C980.868976,2.08564007 984.651855,0.500677616 988.6,0.500677616 C992.548145,0.500677616 996.331024,2.08564007 999.1,4.9 C1001.95995,7.6874798 1003.58118,11.5063799 1003.6,15.5 L1003.6,84 C1016.3,74.2 1031.1,69.3 1048.3,69.3 C1058.10549,69.2775585 1067.80933,71.2864247 1076.8,75.2 C1085.63755,79.0024668 1093.70396,84.3913694 1100.6,91.1 C1107.52624,97.8619871 1113.06346,105.913035 1116.9,114.8 C1120.90503,123.941022 1122.949,133.820213 1122.9,143.8 L1122.9,213.9 C1122.88118,217.89362 1121.25995,221.71252 1118.4,224.5 C1115.65639,227.351688 1111.85697,228.94383 1107.9,228.9 C1103.93475,228.986873 1100.11873,227.387779 1097.4,224.5 C1094.52985,221.727672 1092.93682,217.889937 1093,213.9 L1093,143.8 C1093.02324,137.845011 1091.79682,131.951392 1089.4,126.5 C1087.10127,121.21614 1083.84672,116.402116 1079.8,112.3 C1075.72419,108.221299 1070.90373,104.962401 1065.6,102.7 C1060.15173,100.293434 1054.25601,99.0665794 1048.3,99.1 C1042.35372,99.061602 1036.46373,100.253217 1031,102.6 C1025.68976,104.85045 1020.86715,108.110812 1016.8,112.2 C1008.4264,120.586564 1003.71612,131.948784 1003.7,143.8 L1003.7,213.8 L1003.6,213.8 Z" id="Shape"></path>
                <path d="M1275.1,214 L1275.1,211.1 C1268.12083,216.739324 1260.2448,221.167481 1251.8,224.2 C1243.19968,227.270797 1234.13206,228.827181 1225,228.8 C1202.9,228.8 1184.06667,221 1168.5,205.4 C1152.93333,189.8 1145.13333,170.966667 1145.1,148.9 C1145.1,126.8 1152.9,107.966667 1168.5,92.4 C1184.1,76.8333333 1202.93333,69.0333333 1225,69 C1246.9,69 1265.73333,76.8 1281.5,92.4 C1297.1,108 1304.9,126.833333 1304.9,148.9 L1304.9,214 C1304.84547,222.20635 1298.20635,228.845471 1290,228.9 C1286.00023,229.015559 1282.14217,227.414101 1279.4,224.5 C1276.63148,221.708372 1275.08481,217.931621 1275.1,214 Z M1225,98.8 C1218.22519,98.73397 1211.51256,100.09694 1205.3,102.8 C1199.39164,105.357387 1194.02822,109.023525 1189.5,113.6 C1184.9728,118.165558 1181.37313,123.565067 1178.9,129.5 C1173.69986,141.910624 1173.69986,155.889376 1178.9,168.3 C1181.40986,174.215201 1185.00514,179.608131 1189.5,184.2 C1194.06451,188.732765 1199.41919,192.392926 1205.3,195 C1217.85728,200.332793 1232.04272,200.332793 1244.6,195 C1256.57524,189.85912 1266.10409,180.294441 1271.2,168.3 C1276.39945,155.95861 1276.39945,142.04139 1271.2,129.7 C1268.64173,123.786945 1265.01434,118.396703 1260.5,113.8 C1255.96994,109.179658 1250.56473,105.50819 1244.6,103 C1238.46719,100.13925 1231.76653,98.7033933 1225,98.8 L1225,98.8 Z" id="Shape"></path>
                <path d="M1341.8,69 L1348.5,69 L1348.5,15.3 C1348.41313,11.3347495 1350.01222,7.51872984 1352.9,4.8 C1357.1855,0.598204214 1363.56307,-0.644633067 1369.11273,1.64052049 C1374.66239,3.92567406 1378.3157,9.2988725 1378.4,15.3 L1378.4,69 L1396.2,69 C1400.13066,68.9414973 1403.90482,70.5382576 1406.6,73.4 C1410.79027,77.672393 1412.04017,84.0266651 1409.78025,89.5678268 C1407.52032,95.1089886 1402.18302,98.7767151 1396.2,98.9 L1378.4,98.9 L1378.4,170.7 C1378.4,189.6 1387.9,199.1 1406.9,199.1 C1410.83066,199.041497 1414.60482,200.638258 1417.3,203.5 C1421.49027,207.772393 1422.74017,214.126665 1420.48025,219.667827 C1418.22032,225.208989 1412.88302,228.876715 1406.9,229 C1368,229 1348.53333,209.6 1348.5,170.8 L1348.5,99 L1341.8,99 C1337.89657,99.0678968 1334.14958,97.4672419 1331.5,94.6 C1328.6847,91.8111618 1327.10084,88.0127683 1327.10084,84.05 C1327.10084,80.0872317 1328.6847,76.2888382 1331.5,73.5 C1334.09966,70.5516271 1337.87038,68.9042261 1341.8,69 Z" id="Shape"></path>
            </g>
            <g id="Group" transform="translate(1888.000000, 0.000000)" fill-rule="nonzero" fill="#000000">
                <path d="M0.3,98.6 L0.3,0 L33.6,0 C45.2,0 54.3,2.3 60.8,6.8 C67.3,11.3 70.6,18.1 70.6,27 C70.6680827,31.3380697 69.4122813,35.593841 67,39.2 C64.4329383,42.9313748 60.7607784,45.7641839 56.5,47.3 C62.4,48.6 66.8,51.3 69.8,55.4 C72.7689025,59.6059342 74.3110519,64.6529686 74.2,69.8 C74.2,79.2 71.1,86.4 64.9,91.2 C58.7,96 49.8,98.5 38.4,98.5 L0.3,98.5 L0.3,98.6 Z M20.1,41.3 L34.3,41.3 C39.6,41.3 43.6,40.2 46.5,38 C49.4,35.8 50.8,32.7 50.8,28.5 C50.8,23.9 49.4,20.6 46.5,18.4 C43.6,16.2 39.4,15.2 33.7,15.2 L20.2,15.2 L20.2,41.3 L20.1,41.3 Z M20.1,55 L20.1,83.4 L38.3,83.4 C43.5,83.4 47.5,82.3 50.3,80 C53.1,77.7 54.4,74.4 54.4,69.9 C54.4,65.1 53.2,61.4 50.9,58.9 C48.6,56.4 44.9,55.1 39.8,55.1 L20.1,55.1 L20.1,55 Z" id="Shape"></path>
                <polygon id="Shape" points="149.9 55.3 109.1 55.3 109.1 83.4 156.8 83.4 156.8 98.6 89.3 98.6 89.3 0 156.7 0 156.7 15.2 109.1 15.2 109.1 40 149.9 40"></polygon>
                <polygon id="Shape" points="238.4 15.3 210.5 15.3 210.5 98.7 190.7 98.7 190.7 15.3 162.9 15.3 162.9 0 238.3 0 238.3 15.3"></polygon>
                <path d="M295.6,77.4 L261,77.4 L254.3,98.7 L234.3,98.7 L268.2,0.1 L288.4,0.1 L322.2,98.7 L302.2,98.7 L295.6,77.4 Z M265.8,61.9 L290.7,61.9 L278.5,23.2 L278.1,23.2 L265.8,61.9 Z" id="Shape"></path>
            </g>
        </g>
    </g>
</svg>